<mxfile host="app.diagrams.net" modified="2024-01-25T14:59:17.961Z" agent="Mozilla/5.0 (X11; Ubuntu; Linux x86_64; rv:121.0) Gecko/20100101 Firefox/121.0" version="21.3.7" etag="5vcZVJDXyR7q6wXsyvul" type="github">
  <diagram name="Page-1" id="VxAj3CqaQR3wHS2lEx35">
    <mxGraphModel>
      <root>
        <mxCell id="0" />
        <mxCell id="1" parent="0" />
      </root>
    </mxGraphModel>
  </diagram>
</mxfile>
